<svg width="33" height="38" viewBox="0 0 33 38" fill="none" xmlns="http://www.w3.org/2000/svg">
<g id="material-symbols:help-outline">
<path id="Vector" d="M16.1884 28.1082C16.6624 28.1082 17.0634 27.9193 17.3912 27.5414C17.719 27.1635 17.8824 26.7018 17.8815 26.1563C17.8815 25.6097 17.7181 25.1475 17.3912 24.7696C17.0643 24.3917 16.6633 24.2033 16.1884 24.2043C15.7143 24.2043 15.3138 24.3933 14.9869 24.7712C14.66 25.1491 14.4961 25.6108 14.4952 26.1563C14.4952 26.7028 14.6591 27.1651 14.9869 27.543C15.3147 27.9209 15.7152 28.1093 16.1884 28.1082ZM14.9693 22.0962H17.4752C17.4752 21.2373 17.56 20.5607 17.7298 20.0662C17.8996 19.5717 18.3791 18.895 19.1683 18.0361C19.7553 17.3595 20.218 16.715 20.5567 16.1029C20.8953 15.4908 21.0646 14.7558 21.0646 13.898C21.0646 12.4405 20.6018 11.3214 19.6762 10.5406C18.7507 9.75983 17.6558 9.36944 16.3915 9.36944C15.1048 9.36944 14.0604 9.75983 13.2585 10.5406C12.4567 11.3214 11.8982 12.2583 11.583 13.3514L13.818 14.3665C13.9308 13.898 14.185 13.3905 14.5806 12.8439C14.9761 12.2974 15.5797 12.0241 16.3915 12.0241C17.1139 12.0241 17.6558 12.2521 18.017 12.7081C18.3782 13.164 18.5588 13.6648 18.5588 14.2103C18.5588 14.7308 18.4233 15.2191 18.1524 15.675C17.8815 16.131 17.5429 16.5537 17.1365 16.943C16.1432 17.9581 15.5337 18.7258 15.3079 19.2463C15.0822 19.7669 14.9693 20.7168 14.9693 22.0962ZM16.2561 34.3545C14.3823 34.3545 12.6215 33.9443 10.9735 33.124C9.32549 32.3037 7.89196 31.1913 6.67289 29.7869C5.45383 28.3815 4.48896 26.7289 3.7783 24.829C3.06763 22.929 2.71184 20.899 2.71094 18.7388C2.71094 16.5787 3.06672 14.5486 3.7783 12.6487C4.48987 10.7488 5.45473 9.09616 6.67289 7.69075C7.89196 6.28534 9.32549 5.17299 10.9735 4.35368C12.6215 3.53438 14.3823 3.12421 16.2561 3.12317C18.1298 3.12317 19.8907 3.53334 21.5387 4.35368C23.1867 5.17403 24.6202 6.28638 25.8393 7.69075C27.0583 9.09616 28.0237 10.7488 28.7352 12.6487C29.4468 14.5486 29.8021 16.5787 29.8012 18.7388C29.8012 20.899 29.4455 22.929 28.7339 24.829C28.0223 26.7289 27.0574 28.3815 25.8393 29.7869C24.6202 31.1923 23.1867 32.3052 21.5387 33.1256C19.8907 33.9459 18.1298 34.3556 16.2561 34.3545ZM16.2561 31.2314C19.2812 31.2314 21.8435 30.0212 23.943 27.6007C26.0425 25.1803 27.0922 22.2263 27.0922 18.7388C27.0922 15.2513 26.0425 12.2974 23.943 9.87695C21.8435 7.45652 19.2812 6.2463 16.2561 6.2463C13.231 6.2463 10.6687 7.45652 8.56921 9.87695C6.46972 12.2974 5.41997 15.2513 5.41997 18.7388C5.41997 22.2263 6.46972 25.1803 8.56921 27.6007C10.6687 30.0212 13.231 31.2314 16.2561 31.2314Z" fill="black"/>
</g>
</svg>
