<svg width="33" height="38" viewBox="0 0 33 38" fill="none" xmlns="http://www.w3.org/2000/svg">
<g id="material-symbols:forum-outline">
<path id="Vector" d="M9.48351 28.1082C9.09973 28.1082 8.77781 27.9583 8.51774 27.6585C8.25768 27.3587 8.12809 26.9881 8.129 26.5467V23.4235H25.7377V9.36944H28.4467C28.8305 9.36944 29.1524 9.51935 29.4125 9.81917C29.6726 10.119 29.8021 10.4896 29.8012 10.931V34.3545L24.3832 28.1082H9.48351ZM2.71094 26.5467V4.68474C2.71094 4.2423 2.84097 3.87116 3.10104 3.57134C3.3611 3.27152 3.68258 3.12213 4.06545 3.12317H21.6741C22.0579 3.12317 22.3798 3.27308 22.6399 3.57291C22.9 3.87273 23.0296 4.24334 23.0287 4.68474V18.7388C23.0287 19.1813 22.8986 19.5524 22.6386 19.8522C22.3785 20.1521 22.057 20.3015 21.6741 20.3004H8.129L2.71094 26.5467ZM20.3196 17.1773V6.24631H5.41997V17.1773H20.3196Z" fill="black"/>
</g>
</svg>
