<svg width="20" height="19" viewBox="0 0 20 19" fill="none" xmlns="http://www.w3.org/2000/svg">
<path id="Icon" d="M1.3502 14.9841C1.39298 14.6214 1.41437 14.4401 1.47263 14.2706C1.52432 14.1202 1.59735 13.9771 1.68973 13.8452C1.79387 13.6964 1.93085 13.5674 2.20481 13.3094L14.5034 1.72659C15.5321 0.757804 17.1999 0.757805 18.2285 1.72659C19.2572 2.69537 19.2572 4.26609 18.2285 5.23487L5.92989 16.8177C5.65592 17.0757 5.51894 17.2047 5.36103 17.3028C5.22093 17.3898 5.06899 17.4586 4.90933 17.5073C4.72937 17.5621 4.53683 17.5823 4.15176 17.6226L1 17.9524L1.3502 14.9841Z" stroke="black" stroke-width="2" stroke-linecap="round" stroke-linejoin="round"/>
</svg>
