<svg width="33" height="38" viewBox="0 0 33 38" fill="none" xmlns="http://www.w3.org/2000/svg">
<g id="pepicons-pop:leave">
<g id="Group">
<path id="Vector" fill-rule="evenodd" clip-rule="evenodd" d="M24.4243 13.5519C24.7555 13.234 25.1825 13.0806 25.6117 13.1256C26.0409 13.1706 26.437 13.4102 26.7129 13.7918L30.0987 18.4765C30.3624 18.8597 30.4857 19.3466 30.4422 19.8332C30.3988 20.3199 30.1919 20.7676 29.8659 21.0808C29.54 21.3939 29.1207 21.5477 28.6977 21.5093C28.2746 21.4708 27.8814 21.2432 27.602 20.875L24.2163 16.1903C23.9405 15.8086 23.8075 15.3162 23.8465 14.8215C23.8855 14.3267 24.0934 13.8701 24.4243 13.5519Z" fill="black"/>
<path id="Vector_2" fill-rule="evenodd" clip-rule="evenodd" d="M24.4253 25.7996C24.0941 25.4817 23.8859 25.0252 23.8466 24.5304C23.8073 24.0357 23.94 23.5432 24.2156 23.1612L27.603 18.4765C27.7377 18.2807 27.905 18.118 28.0951 17.998C28.2851 17.8779 28.4941 17.8028 28.7097 17.7772C28.9253 17.7516 29.1432 17.776 29.3505 17.8488C29.5578 17.9217 29.7504 18.0417 29.9169 18.2017C30.0834 18.3616 30.2204 18.5584 30.32 18.7803C30.4196 19.0022 30.4796 19.2449 30.4967 19.494C30.5137 19.7431 30.4874 19.9936 30.4192 20.2307C30.351 20.4679 30.2423 20.687 30.0996 20.875L26.7139 25.5598C26.4379 25.9413 26.0418 26.1809 25.6127 26.2259C25.1835 26.2709 24.7564 26.1175 24.4253 25.7996Z" fill="black"/>
<path id="Vector_3" fill-rule="evenodd" clip-rule="evenodd" d="M28.4436 19.6757C28.4436 20.1727 28.2723 20.6494 27.9675 21.0008C27.6627 21.3522 27.2492 21.5496 26.8181 21.5496H16.2529C15.8218 21.5496 15.4084 21.3522 15.1036 21.0008C14.7988 20.6494 14.6275 20.1727 14.6275 19.6757C14.6275 19.1788 14.7988 18.7021 15.1036 18.3507C15.4084 17.9993 15.8218 17.8019 16.2529 17.8019H26.8181C27.2492 17.8019 27.6627 17.9993 27.9675 18.3507C28.2723 18.7021 28.4436 19.1788 28.4436 19.6757ZM4.875 6.55857C4.875 6.06159 5.04625 5.58496 5.35107 5.23354C5.6559 4.88212 6.06933 4.68469 6.50042 4.68469H21.1292C21.5603 4.68469 21.9737 4.88212 22.2785 5.23354C22.5833 5.58496 22.7546 6.06159 22.7546 6.55857C22.7546 7.05556 22.5833 7.53219 22.2785 7.88361C21.9737 8.23503 21.5603 8.43245 21.1292 8.43245H6.50042C6.06933 8.43245 5.6559 8.23503 5.35107 7.88361C5.04625 7.53219 4.875 7.05556 4.875 6.55857ZM4.875 32.7929C4.875 32.2959 5.04625 31.8193 5.35107 31.4679C5.6559 31.1164 6.06933 30.919 6.50042 30.919H21.1292C21.5603 30.919 21.9737 31.1164 22.2785 31.4679C22.5833 31.8193 22.7546 32.2959 22.7546 32.7929C22.7546 33.2899 22.5833 33.7665 22.2785 34.1179C21.9737 34.4694 21.5603 34.6668 21.1292 34.6668H6.50042C6.06933 34.6668 5.6559 34.4694 5.35107 34.1179C5.04625 33.7665 4.875 33.2899 4.875 32.7929Z" fill="black"/>
<path id="Vector_4" fill-rule="evenodd" clip-rule="evenodd" d="M21.1292 4.68469C21.5603 4.68469 21.9737 4.88212 22.2785 5.23354C22.5833 5.58496 22.7546 6.06159 22.7546 6.55857V14.0541C22.7546 14.5511 22.5833 15.0277 22.2785 15.3791C21.9737 15.7305 21.5603 15.928 21.1292 15.928C20.6981 15.928 20.2847 15.7305 19.9798 15.3791C19.675 15.0277 19.5038 14.5511 19.5038 14.0541V6.55857C19.5038 6.06159 19.675 5.58496 19.9798 5.23354C20.2847 4.88212 20.6981 4.68469 21.1292 4.68469ZM21.1292 23.4235C21.5603 23.4235 21.9737 23.6209 22.2785 23.9723C22.5833 24.3238 22.7546 24.8004 22.7546 25.2974V32.7929C22.7546 33.2899 22.5833 33.7665 22.2785 34.1179C21.9737 34.4694 21.5603 34.6668 21.1292 34.6668C20.6981 34.6668 20.2847 34.4694 19.9798 34.1179C19.675 33.7665 19.5038 33.2899 19.5038 32.7929V25.2974C19.5038 24.8004 19.675 24.3238 19.9798 23.9723C20.2847 23.6209 20.6981 23.4235 21.1292 23.4235ZM6.50042 4.68469C6.93151 4.68469 7.34494 4.88212 7.64976 5.23354C7.95459 5.58496 8.12584 6.06159 8.12584 6.55857V32.7929C8.12584 33.2899 7.95459 33.7665 7.64976 34.1179C7.34494 34.4694 6.93151 34.6668 6.50042 34.6668C6.06933 34.6668 5.6559 34.4694 5.35107 34.1179C5.04625 33.7665 4.875 33.2899 4.875 32.7929V6.55857C4.875 6.06159 5.04625 5.58496 5.35107 5.23354C5.6559 4.88212 6.06933 4.68469 6.50042 4.68469Z" fill="black"/>
</g>
</g>
</svg>
