<svg width="17" height="20" viewBox="0 0 17 20" fill="none" xmlns="http://www.w3.org/2000/svg">
<path id="Vector" d="M0 19.8979V2.07323C0 1.48271 0.218639 0.989759 0.655916 0.594369C1.09225 0.198123 1.63625 0 2.28792 0H14.7121C15.3637 0 15.9078 0.198123 16.3441 0.594369C16.7814 0.989759 17 1.48271 17 2.07323V19.8979L8.5 16.5897L0 19.8979ZM1.41667 17.9081L8.5 15.1481L15.5833 17.9081V2.07323C15.5833 1.87639 15.4927 1.69539 15.3113 1.53021C15.1291 1.36589 14.9293 1.28373 14.7121 1.28373H2.28792C2.07069 1.28373 1.87094 1.36589 1.68867 1.53021C1.50733 1.69539 1.41667 1.87639 1.41667 2.07323V17.9081Z" fill="black"/>
</svg>
