<svg width="20" height="16" viewBox="0 0 20 16" fill="none" xmlns="http://www.w3.org/2000/svg">
<g id="&#240;&#159;&#166;&#134; icon &#34;magnifying glass&#34;">
<path id="Vector" d="M8.68388 0.00991028C8.67586 0.0163255 8.66581 0.0198172 8.65554 0.0198321C3.88114 0.0267445 0 3.1359 0 6.95702C0 10.7824 3.88979 13.8942 8.6715 13.8942C9.98275 13.8942 11.2741 13.6709 12.4024 13.2387C12.6357 13.1493 12.8983 13.2009 13.1063 13.3392L15.5839 15.3213C15.8127 15.5272 16.0917 15.6936 16.4037 15.8101C16.7157 15.9267 17.0543 15.991 17.3985 15.9991C17.7428 16.0072 18.0854 15.959 18.4055 15.8573C18.7256 15.7556 19.0163 15.6027 19.2598 15.4079C19.5033 15.213 19.6945 14.9805 19.8216 14.7244C19.9487 14.4683 20.009 14.1942 19.9989 13.9188C19.9888 13.6434 19.9084 13.3726 19.7627 13.123C19.617 12.8733 19.409 12.6501 19.1516 12.4671L16.674 10.4851C16.4775 10.3278 16.4045 10.0452 16.5328 9.82862C17.0519 8.95231 17.3678 7.96705 17.3678 6.9372C17.3678 3.11608 13.4866 0.00692409 8.71222 1.15488e-05C8.70196 -3.31955e-06 8.6919 0.00349504 8.68388 0.00991028ZM8.65911 2.01179C8.66713 2.00537 8.67719 2.00187 8.68746 2.00189C12.1238 2.00868 14.8654 4.20622 14.8654 6.95702C14.8654 8.26517 14.2708 9.47423 13.2302 10.3662C13.2054 10.386 13.1807 10.4058 13.1559 10.4256C13.0389 10.5034 12.9311 10.5897 12.8338 10.6833C11.7437 11.4761 10.2571 11.932 8.64672 11.932C5.2029 11.932 2.45279 9.73189 2.45279 6.97684C2.45279 4.22604 5.1944 2.0285 8.63076 2.02171C8.64103 2.02169 8.65109 2.0182 8.65911 2.01179Z" fill="black"/>
</g>
</svg>
