<svg width="204" height="100" viewBox="0 0 204 100" fill="none" xmlns="http://www.w3.org/2000/svg">
<path id="Vector" d="M51 100C36.9364 100 24.9189 96.7187 14.9476 90.1562C4.97637 83.5937 -0.00617607 75.5729 5.74518e-06 66.0938C5.74518e-06 57.9688 3.63182 50.7292 10.8955 44.375C18.1591 38.0208 27.6636 33.9583 39.4091 32.1875C43.2727 22.6042 51 14.8438 62.5909 8.90625C74.1818 2.96875 87.3182 0 102 0C120.082 0 135.422 4.24583 148.021 12.7375C160.619 21.2292 166.915 31.5667 166.909 43.75C177.573 44.5833 186.422 47.6833 193.457 53.05C200.492 58.4167 204.006 64.6917 204 71.875C204 79.6875 199.942 86.3292 191.825 91.8C183.708 97.2708 173.857 100.004 162.273 100H51Z" fill="#EE0D51"/>
</svg>
